# xmcd CD database file
#
# Track frame offsets:
#	150
#	15103
#	28619
#	48187
#	64611
#	89986
#	133272
#	152244
#	170035
#	191482
#	222804
#	241484
#	257947
#	276084
#
# Disc length: 4110 seconds
#
# Revision: 0
# Processed by: cddbd v1.4PL0 Copyright (c) Steve Scherf et al.
# Submitted via: Feurio! 1.62 - http://www.feurio.com
#
DISCID=c8100c0e
DTITLE=Todd Sharpville - The Meaning Of Life
DYEAR=1900
DGENRE=blues
TTITLE0=I Can't Stop It
TTITLE1=Losin' This Woman
TTITLE2=Ordinary Fool
TTITLE3=Bird On A Wire
TTITLE4=I Think I'm Blind
TTITLE5=Heart and Soul
TTITLE6=Blues Music
TTITLE7=Damn Sure She Loves Me
TTITLE8=Willow
TTITLE9=Doghouse
TTITLE10=Look Watcha Done
TTITLE11=Ball
TTITLE12=Crazy 'Bout You
TTITLE13=The Meaning Of Life
EXTD=
EXTT0=
EXTT1=
EXTT2=
EXTT3=
EXTT4=
EXTT5=
EXTT6=
EXTT7=
EXTT8=
EXTT9=
EXTT10=
EXTT11=
EXTT12=
EXTT13=
PLAYORDER=
